#!OML:ASF G:\ViconDB\ViconDB\414\test\team2\shane.ASF
:FULLY-SPECIFIED
:DEGREES
213
root 0.399569 16.6638 15.2465 -12.1911 1.89468 -8.72484
lowerback 9.48362 -0.703168 4.29019
upperback 4.89117 -0.526748 4.21749
thorax -0.228159 -0.237884 2.00688
lowerneck -17.1095 -4.50247 -9.48627
upperneck 21.0921 -5.65786 8.18439
head 10.0511 -2.4609 3.68889
rclavicle 1.41758e-014 -2.38542e-015
rhumerus -35.716 1.21671 -79.9879
rradius 38.0238
rwrist 38.8061
rhand -38.2189 -13.9086
rfingers 7.12502
rthumb -11.2504 -43.5869
lclavicle 1.41758e-014 -2.38542e-015
lhumerus -27.189 -13.721 93.042
lradius 21.2303
lwrist -21.3237
lhand -43.0452 6.54673
lfingers 7.12502
lthumb -15.9019 35.9138
rfemur 3.81048 -17.4432 24.6191
rtibia 31.2786
rfoot -24.7512 3.70966
rtoes -6.24038
lfemur -1.26511 7.15973 4.99984
ltibia 67.0842
lfoot -16.9165 -18.8094
ltoes -10.0921
214
root 0.372963 16.6604 15.437 -12.3679 1.39889 -8.54517
lowerback 9.81812 -0.459745 4.19968
upperback 4.88369 -0.187684 4.13497
thorax -0.42121 -0.0710303 1.94189
lowerneck -17.1273 -4.4741 -8.98689
upperneck 21.31 -5.67233 7.79403
head 10.1053 -2.4704 3.46593
rclavicle -2.3469e-014 -2.72335e-014
rhumerus -34.023 2.64959 -82.0354
rradius 40.1386
rwrist 36.6054
rhand -38.3829 -13.9556
rfingers 7.12502
rthumb -11.4086 -43.6252
lclavicle -2.3469e-014 -2.72335e-014
lhumerus -28.5585 -10.9239 91.2962
lradius 18.7112
lwrist -24.2312
lhand -43.3883 7.45906
lfingers 7.12502
lthumb -16.2323 36.7995
rfemur 5.07952 -16.993 24.3998
rtibia 30.7233
rfoot -25.0373 3.75041
rtoes -6.26677
lfemur -2.41249 7.84238 4.68169
ltibia 66.5496
lfoot -17.9648 -18.4176
ltoes -10.4229
215
root 0.360274 16.6582 15.6241 -12.3239 0.691826 -8.35138
lowerback 9.94191 -0.177986 4.27339
upperback 4.83548 0.200945 3.95641
thorax -0.539833 0.124587 1.67592
lowerneck -17.0657 -4.36951 -8.56537
upperneck 21.5265 -5.63082 7.66973
head 10.1494 -2.43183 3.36089
rclavicle 1.05977e-014 -1.03368e-014
rhumerus -32.3484 3.50851 -83.7746
rradius 42.2067
rwrist 36.5211
rhand -38.298 -14.6875
rfingers 7.12502
rthumb -11.3267 -44.3617
lclavicle 1.05977e-014 -1.03368e-014
lhumerus -29.8706 -8.21016 89.1395
lradius 16.544
lwrist -26.3218
lhand -42.695 7.71826
lfingers 7.12502
lthumb -15.5646 37.1119
rfemur 6.0678 -16.7 24.1165
rtibia 30.3038
rfoot -25.368 4.07305
rtoes -7.03407
lfemur -3.59875 8.68559 4.24704
ltibia 65.6994
lfoot -18.7729 -17.8412
ltoes -10.3657
216
root 0.353057 16.6602 15.8151 -12.3168 0.00344397 -8.2131
lowerback 10.0348 0.119938 4.58548
upperback 4.86565 0.625321 3.77874
thorax -0.552075 0.343285 1.27316
lowerneck -17.1984 -4.41928 -8.53525
upperneck 21.6726 -5.76446 7.8926
head 10.2457 -2.462 3.41798
rclavicle 1.06785e-014 3.69739e-014
rhumerus -30.7394 4.49174 -85.5206
rradius 44.4583
rwrist 34.9261
rhand -39.1063 -15.0704
rfingers 7.12502
rthumb -12.1061 -44.7002
lclavicle 1.06785e-014 3.69739e-014
lhumerus -31.3744 -6.83864 87.2912
lradius 14.9146
lwrist -27.3533
lhand -42.3986 7.91586
lfingers 7.12502
lthumb -15.2791 37.3315
rfemur 7.1741 -16.4277 23.8124
rtibia 29.6946
rfoot -25.5515 4.59409
rtoes -7.3995
lfemur -4.68649 9.5242 3.78915
ltibia 64.6276
lfoot -19.8716 -17.0587
ltoes -10.9759
217
root 0.314091 16.6975 16.0179 -11.4318 1.0161 -5.861
lowerback 8.94748 0.252424 1.60596
upperback 4.65742 0.496925 3.17082
thorax -0.204484 0.24129 2.32771
lowerneck -16.9905 -4.55059 -8.43936
upperneck 21.5981 -5.99648 7.92151
head 10.1995 -2.56242 3.37889
rclavicle -8.66577e-015 -1.59028e-014
rhumerus -29.2352 5.80712 -87.0813
rradius 46.9924
rwrist 33.5848
rhand -39.4908 -15.848
rfingers 7.12502
rthumb -12.4769 -45.4556
lclavicle -8.66577e-015 -1.59028e-014
lhumerus -32.6256 -3.18866 84.2884
lradius 13.0791
lwrist -30.8268
lhand -41.8624 8.09154
lfingers 7.12502
lthumb -14.7626 37.5458
rfemur 7.28525 -16.1954 21.5627
rtibia 29.0454
rfoot -25.7985 4.10183
rtoes -6.67549
lfemur -7.17377 9.26418 0.206989
ltibia 63.1993
lfoot -20.2804 -15.8914
ltoes -10.732
218
root 0.351393 16.6743 16.2051 -12.0088 -1.4014 -7.38178
lowerback 9.81105 0.787522 4.59968
upperback 4.83335 1.48873 3.29974
thorax -0.441059 0.781187 0.683514
lowerneck -17.0893 -4.51215 -8.0919
upperneck 21.7556 -6.03108 7.87601
head 10.2646 -2.55144 3.30066
rclavicle -5.19201e-014 -3.85642e-014
rhumerus -27.8492 7.23886 -88.5097
rradius 49.7182
rwrist 31.6261
rhand -39.8346 -16.1242
rfingers 7.12502
rthumb -12.8084 -45.7113
lclavicle -5.19201e-014 -3.85642e-014
lhumerus -34.3467 -1.56236 81.7437
lradius 11.8566
lwrist -33.3525
lhand -41.5986 8.46162
lfingers 7.12502
lthumb -14.5084 37.9343
rfemur 9.18342 -16.0943 22.4618
rtibia 28.2216
rfoot -26.0139 6.51227
rtoes -5.75731
lfemur -6.85203 11.0743 2.03374
ltibia 61.6695
lfoot -21.4059 -15.1088
ltoes -9.8839
219
root 0.345279 16.6955 16.4025 -11.7401 -2.12244 -6.7488
lowerback 9.69776 1.19551 4.45477
upperback 4.73671 2.00732 2.83677
thorax -0.458004 1.04175 0.235752
lowerneck -16.9677 -4.63373 -7.86141
upperneck 21.6493 -6.3608 8.23023
head 10.2387 -2.64686 3.34059
rclavicle -2.01984e-014 -3.58309e-014
rhumerus -26.5153 8.37478 -90.0451
rradius 52.4
rwrist 30.5468
rhand -40.1645 -17.013
rfingers 7.12502
rthumb -13.1264 -46.5798
lclavicle -2.01984e-014 -3.58309e-014
lhumerus -35.9677 0.360384 78.5627
lradius 10.8643
lwrist -36.2705
lhand -40.9803 8.73013
lfingers 7.12502
lthumb -13.9126 38.2447
rfemur 10.1207 -15.9119 21.5629
rtibia 27.3294
rfoot -26.1214 7.3392
rtoes -5.96048
lfemur -7.93242 11.6336 0.856494
ltibia 59.7853
lfoot -21.7972 -14.2855
ltoes -9.64627
220
root 0.340071 16.7015 16.604 -11.5988 -2.89021 -6.59076
lowerback 10.3388 2.00092 6.30837
upperback 4.18606 3.30126 1.95133
thorax -1.17694 1.69359 -1.87331
lowerneck -16.2007 -5.28113 -7.73955
upperneck 21.682 -7.5289 8.87171
head 10.2378 -3.12012 3.38904
rclavicle -1.50766e-014 -2.88238e-015
rhumerus -26.1607 7.01255 -91.4097
rradius 55.4885
rwrist 29.1959
rhand -40.6773 -17.4661
rfingers 7.12502
rthumb -13.6206 -47.0005
lclavicle -1.50766e-014 -2.88238e-015
lhumerus -37.8114 -1.18504 76.2173
lradius 10.3573
lwrist -37.5772
lhand -40.6147 8.85681
lfingers 7.12502
lthumb -13.5603 38.3952
rfemur 11.3367 -15.5369 21.2622
rtibia 26.1069
rfoot -26.0191 7.87165
rtoes -6.02356
lfemur -8.82066 12.5589 0.305238
ltibia 57.8049
lfoot -22.847 -13.3554
ltoes -10.122
221
root 0.339045 16.7144 16.8064 -11.2837 -3.5663 -6.5508
lowerback 9.61281 1.9099 4.91208
upperback 4.41977 2.99839 2.55929
thorax -0.672417 1.5379 -0.403504
lowerneck -16.8205 -4.82769 -7.41371
upperneck 21.898 -6.74519 8.06121
head 10.3131 -2.80664 3.15322
rclavicle 4.8932e-014 5.17617e-015
rhumerus -24.4551 10.9548 -92.267
rradius 58.4343
rwrist 27.8735
rhand -41.0527 -18.0611
rfingers 7.12502
rthumb -13.9824 -47.5709
lclavicle 4.8932e-014 5.17617e-015
lhumerus -39.6039 0.202796 75.3993
lradius 9.57761
lwrist -36.11
lhand -40.5674 9.1192
lfingers 7.12502
lthumb -13.5147 38.6607
rfemur 12.3658 -15.3727 21.0257
rtibia 24.8889
rfoot -25.9105 8.51425
rtoes -6.29521
lfemur -9.8668 13.036 -0.2115
ltibia 55.568
lfoot -23.2837 -12.8128
ltoes -9.8632
222
root 0.334079 16.7212 17.0128 -11.0566 -3.91653 -6.33362
lowerback 9.60529 2.18361 4.94045
upperback 4.20923 3.36994 2.34519
thorax -0.856867 1.71905 -0.680695
lowerneck -16.6065 -4.86522 -7.26422
upperneck 21.7945 -6.91578 8.33222
head 10.2559 -2.84787 3.20182
rclavicle -1.71918e-014 4.42296e-015
rhumerus -23.5074 11.5935 -93.3573
rradius 61.4746
rwrist 27.2108
rhand -41.4914 -18.4804
rfingers 7.12502
rthumb -14.4052 -47.9605
lclavicle -1.71918e-014 4.42296e-015
lhumerus -41.4044 -0.92469 74.4455
lradius 9.15106
lwrist -35.4015
lhand -40.4642 9.61311
lfingers 7.12502
lthumb -13.4152 39.1612
rfemur 13.5451 -15.3635 20.5572
rtibia 23.609
rfoot -25.9434 8.90898
rtoes -6.90715
lfemur -10.8937 13.553 -0.967359
ltibia 53.2914
lfoot -24.0851 -12.0793
ltoes -9.89469
223
root 0.335598 16.736 17.2209 -10.7702 -4.33656 -6.48589
lowerback 9.94128 3.23056 8.48359
upperback 3.79261 5.09585 0.816698
thorax -0.917303 2.61873 -4.403
lowerneck -15.7027 -6.18252 -7.37772
upperneck 21.2758 -9.14859 9.85707
head 10.1915 -3.74563 3.44243
rclavicle -1.27992e-013 -1.03368e-014
rhumerus -22.7951 8.28485 -94.3252
rradius 65.075
rwrist 27.5805
rhand -41.7492 -18.8326
rfingers 7.12502
rthumb -14.6535 -48.2949
lclavicle -1.27992e-013 -1.03368e-014
lhumerus -42.5405 -6.50912 72.8117
lradius 10.5403
lwrist -34.0817
lhand -39.2918 9.3218
lfingers 7.12502
lthumb -12.285 38.9409
rfemur 14.7203 -15.3178 20.4137
rtibia 22.1552
rfoot -25.5584 9.92654
rtoes -5.73196
lfemur -11.877 13.7909 -1.31362
ltibia 50.9147
lfoot -24.5712 -11.4994
ltoes -10.2647
224
root 0.39682 16.723 17.4117 -11.2703 -4.47875 -6.76559
lowerback 10.7987 2.4498 7.23166
upperback 3.74567 4.04673 1.84741
thorax -1.75396 2.04274 -2.607
lowerneck -15.9851 -5.1117 -6.96628
upperneck 21.7599 -7.42297 8.49977
head 10.1666 -3.05374 3.14606
rclavicle -2.96282e-014 1.53064e-014
rhumerus -22.2221 13.4329 -94.9369
rradius 68.4428
rwrist 26.5142
rhand -41.5365 -19.8066
rfingers 7.12502
rthumb -14.4486 -49.2836
lclavicle -2.96282e-014 1.53064e-014
lhumerus -45.6091 -4.41694 73.041
lradius 9.76621
lwrist -32.3431
lhand -40.0978 10.2675
lfingers 7.12502
lthumb -13.0621 39.8384
rfemur 16.6908 -16.0457 19.7742
rtibia 20.5281
rfoot -24.8962 11.3007
rtoes -5.47979
lfemur -12.4148 13.621 -1.67488
ltibia 48.563
lfoot -25.1131 -10.6676
ltoes -10.4453
225
root 0.408912 16.7247 17.6295 -10.9287 -4.50256 -6.83153
lowerback 10.5972 3.45492 11.1643
upperback 3.67217 5.71853 0.0982709
thorax -0.953159 2.95512 -6.74078
lowerneck -15.7961 -6.52597 -6.95108
upperneck 21.202 -9.81665 10.1779
head 10.2477 -3.98002 3.38154
rclavicle 3.11595e-014 -1.55052e-014
rhumerus -20.7686 9.86672 -95.6009
rradius 71.9563
rwrist 26.2011
rhand -41.9497 -19.884
rfingers 7.12502
rthumb -14.8467 -49.3321
lclavicle 3.11595e-014 -1.55052e-014
lhumerus -45.9008 -10.8559 72.0325
lradius 11.3302
lwrist -30.1497
lhand -38.2886 9.38099
lfingers 7.12502
lthumb -11.3177 39.0556
rfemur 18.0249 -16.5078 19.3894
rtibia 18.7073
rfoot -24.3575 12.1437
rtoes -5.64623
lfemur -13.5851 13.7601 -2.2013
ltibia 46.2115
lfoot -25.4511 -10.5103
ltoes -10.1244
226
root 0.424079 16.7256 17.8472 -10.5337 -4.65848 -6.77954
lowerback 10.373 2.88891 8.13863
upperback 3.22538 4.70117 1.48651
thorax -1.89353 2.35533 -3.54088
lowerneck -15.5765 -5.46317 -6.84136
upperneck 21.6714 -8.03295 8.75144
head 10.119 -3.30804 3.13161
rclavicle -1.56698e-015 -6.55989e-015
rhumerus -20.6766 15.1535 -95.7265
rradius 74.9111
rwrist 26.1685
rhand -41.9368 -20.284
rfingers 7.12502
rthumb -14.8343 -49.733
lclavicle -1.56698e-015 -6.55989e-015
lhumerus -49.0485 -4.38427 68.1026
lradius 10.8804
lwrist -34.2121
lhand -38.4966 8.9047
lfingers 7.12502
lthumb -11.5183 38.5682
rfemur 19.464 -17.1037 18.6897
rtibia 16.6413
rfoot -23.8516 13.0949
rtoes -6.37747
lfemur -14.7015 13.829 -2.92985
ltibia 43.8844
lfoot -25.8694 -10.0668
ltoes -10.4027
227
root 0.42651 16.7099 18.0524 -10.3736 -4.85656 -7.27934
lowerback 10.4484 4.0873 12.888
upperback 3.36577 6.72221 -0.369615
thorax -0.724128 3.47861 -8.25427
lowerneck -15.2319 -7.24397 -7.16493
upperneck 20.5417 -10.94 10.98
head 10.0839 -4.46223 3.53559
rclavicle -9.71933e-014 -1.11319e-014
rhumerus -18.7245 10.8305 -95.9652
rradius 77.9734
rwrist 27.0547
rhand -42.7056 -20.6472
rfingers 7.12502
rthumb -15.5748 -50.0401
lclavicle -9.71933e-014 -1.11319e-014
lhumerus -49.3247 -15.9933 72.2379
lradius 12.8223
lwrist -24.8074
lhand -37.7464 9.78443
lfingers 7.12502
lthumb -10.7947 39.487
rfemur 21.3196 -17.4632 18.6873
rtibia 14.1995
rfoot -23.0445 13.8619
rtoes -6.5563
lfemur -15.592 13.8872 -2.85588
ltibia 41.6642
lfoot -26.2247 -10.2017
ltoes -10.2739
